{
	"asset":{
		"generator":"Khronos glTF Blender I/O v4.3.47",
		"version":"2.0"
	},
	"extensionsUsed":[
		"KHR_lights_punctual"
	],
	"extensionsRequired":[
		"KHR_lights_punctual"
	],
	"extensions":{
		"KHR_lights_punctual":{
			"lights":[
				{
					"color":[
						1,
						1,
						1
					],
					"intensity":15.915494309189533,
					"type":"point",
					"name":"Red"
				}
			]
		}
	},
	"scene":0,
	"scenes":[
		{
			"name":"Scene",
			"nodes":[
				1,
				3,
				4,
				5,
				6,
				7,
				8,
				9,
				10,
				11
			]
		}
	],
	"nodes":[
		{
			"camera":0,
			"name":"Camera",
			"rotation":[
				-0.17036086320877075,
				0.3897501528263092,
				0.07360992580652237,
				0.9020274877548218
			],
			"translation":[
				3.3902502059936523,
				1.82359778881073,
				3.1907200813293457
			]
		},
		{
			"children":[
				0
			],
			"name":"CameraRoot"
		},
		{
			"extensions":{
				"KHR_lights_punctual":{
					"light":0
				}
			},
			"name":"Red",
			"rotation":[
				-0.7071068286895752,
				0,
				0,
				0.7071068286895752
			]
		},
		{
			"children":[
				2
			],
			"name":"RedRoot",
			"rotation":[
				0.17364820837974548,
				0,
				0,
				0.9848078489303589
			]
		},
		{
			"mesh":0,
			"name":"Suzanne",
			"rotation":[
				-0.011615311726927757,
				-0.7070114612579346,
				0.011615297757089138,
				0.7070114016532898
			],
			"scale":[
				0.5,
				0.5,
				0.5
			],
			"translation":[
				4.237222194671631,
				0,
				0
			]
		},
		{
			"mesh":1,
			"name":"Suzanne.001",
			"rotation":[
				0,
				0.7071068286895752,
				0,
				0.7071068286895752
			],
			"scale":[
				0.5,
				0.4999999701976776,
				0.5
			],
			"translation":[
				-2.0456128120422363,
				0,
				0
			]
		},
		{
			"mesh":2,
			"name":"Suzanne.002",
			"rotation":[
				0.11107631027698517,
				-0.15936020016670227,
				0.11107631027698517,
				0.9746427536010742
			],
			"scale":[
				0.4999999403953552,
				0.4999999701976776,
				0.4999999701976776
			],
			"translation":[
				1.2538743019104004,
				1.1046136617660522,
				-4.053844451904297
			]
		},
		{
			"mesh":3,
			"name":"Suzanne.003",
			"rotation":[
				0.12827685475349426,
				-0.8659064173698425,
				-0.4637317657470703,
				0.13676245510578156
			],
			"scale":[
				0.5,
				0.5,
				0.5
			],
			"translation":[
				0.8515341281890869,
				-1.8379743099212646,
				1.274355411529541
			]
		},
		{
			"mesh":4,
			"name":"Cube"
		},
		{
			"mesh":5,
			"name":"Suzanne.004",
			"rotation":[
				0.2612774670124054,
				-0.7464113831520081,
				0.2612774670124054,
				0.5534784197807312
			],
			"scale":[
				0.5,
				0.4999999701976776,
				0.4999999701976776
			],
			"translation":[
				3.6417741775512695,
				3.586599349975586,
				1.3242111206054688
			]
		},
		{
			"mesh":6,
			"name":"Suzanne.005",
			"rotation":[
				-0.06520169973373413,
				-0.9148492813110352,
				-0.06520169973373413,
				0.39312630891799927
			],
			"scale":[
				0.5,
				0.4999999701976776,
				0.5
			],
			"translation":[
				3.4300081729888916,
				-0.8230690956115723,
				3.292966604232788
			]
		},
		{
			"mesh":7,
			"name":"Suzanne.006",
			"rotation":[
				0.29392117261886597,
				0.24256503582000732,
				0.29392117261886597,
				0.8765745162963867
			],
			"scale":[
				0.5,
				0.4999999403953552,
				0.5
			],
			"translation":[
				-1.7960851192474365,
				1.1193325519561768,
				-2.130995512008667
			]
		}
	],
	"cameras":[
		{
			"name":"Camera",
			"perspective":{
				"aspectRatio":1.7777777777777777,
				"yfov":1.401708869443775,
				"zfar":100,
				"znear":0.10000000149011612
			},
			"type":"perspective"
		}
	],
	"animations":[
		{
			"channels":[
				{
					"sampler":0,
					"target":{
						"node":1,
						"path":"rotation"
					}
				}
			],
			"name":"CameraRootAction",
			"samplers":[
				{
					"input":26,
					"interpolation":"LINEAR",
					"output":27
				}
			]
		}
	],
	"materials":[
		{
			"doubleSided":true,
			"name":"Material",
			"pbrMetallicRoughness":{
				"metallicFactor":0,
				"roughnessFactor":0.5
			}
		},
		{
			"doubleSided":true,
			"name":"Material.001",
			"pbrMetallicRoughness":{
				"metallicFactor":0,
				"roughnessFactor":0.5
			}
		},
		{
			"doubleSided":true,
			"name":"Material.002",
			"pbrMetallicRoughness":{
				"metallicFactor":0,
				"roughnessFactor":0.5
			}
		},
		{
			"doubleSided":true,
			"name":"Material.003",
			"pbrMetallicRoughness":{
				"metallicFactor":0,
				"roughnessFactor":0.5
			}
		},
		{
			"doubleSided":true,
			"name":"Material.004",
			"pbrMetallicRoughness":{
				"baseColorFactor":[
					0.800000011920929,
					0.800000011920929,
					0.800000011920929,
					1
				],
				"metallicFactor":0,
				"roughnessFactor":0.5
			}
		}
	],
	"meshes":[
		{
			"name":"Suzanne",
			"primitives":[
				{
					"attributes":{
						"POSITION":0,
						"NORMAL":1,
						"TEXCOORD_0":2
					},
					"indices":3,
					"material":0
				}
			]
		},
		{
			"name":"Suzanne.001",
			"primitives":[
				{
					"attributes":{
						"POSITION":4,
						"NORMAL":5,
						"TEXCOORD_0":6
					},
					"indices":3,
					"material":1
				}
			]
		},
		{
			"name":"Suzanne.002",
			"primitives":[
				{
					"attributes":{
						"POSITION":7,
						"NORMAL":8,
						"TEXCOORD_0":9
					},
					"indices":3,
					"material":2
				}
			]
		},
		{
			"name":"Suzanne.003",
			"primitives":[
				{
					"attributes":{
						"POSITION":10,
						"NORMAL":11,
						"TEXCOORD_0":12
					},
					"indices":3,
					"material":3
				}
			]
		},
		{
			"name":"Cube",
			"primitives":[
				{
					"attributes":{
						"POSITION":13,
						"NORMAL":14,
						"TEXCOORD_0":15
					},
					"indices":16,
					"material":4
				}
			]
		},
		{
			"name":"Suzanne.004",
			"primitives":[
				{
					"attributes":{
						"POSITION":17,
						"NORMAL":18,
						"TEXCOORD_0":19
					},
					"indices":3,
					"material":2
				}
			]
		},
		{
			"name":"Suzanne.005",
			"primitives":[
				{
					"attributes":{
						"POSITION":20,
						"NORMAL":21,
						"TEXCOORD_0":22
					},
					"indices":3,
					"material":2
				}
			]
		},
		{
			"name":"Suzanne.006",
			"primitives":[
				{
					"attributes":{
						"POSITION":23,
						"NORMAL":24,
						"TEXCOORD_0":25
					},
					"indices":3,
					"material":2
				}
			]
		}
	],
	"accessors":[
		{
			"bufferView":0,
			"componentType":5126,
			"count":555,
			"max":[
				1.3671875,
				0.984375,
				0.8515625
			],
			"min":[
				-1.3671875,
				-0.984375,
				-0.8515625
			],
			"type":"VEC3"
		},
		{
			"bufferView":1,
			"componentType":5126,
			"count":555,
			"type":"VEC3"
		},
		{
			"bufferView":2,
			"componentType":5126,
			"count":555,
			"type":"VEC2"
		},
		{
			"bufferView":3,
			"componentType":5123,
			"count":2904,
			"type":"SCALAR"
		},
		{
			"bufferView":4,
			"componentType":5126,
			"count":555,
			"max":[
				1.3671875,
				0.984375,
				0.8515625
			],
			"min":[
				-1.3671875,
				-0.984375,
				-0.8515625
			],
			"type":"VEC3"
		},
		{
			"bufferView":5,
			"componentType":5126,
			"count":555,
			"type":"VEC3"
		},
		{
			"bufferView":6,
			"componentType":5126,
			"count":555,
			"type":"VEC2"
		},
		{
			"bufferView":7,
			"componentType":5126,
			"count":555,
			"max":[
				1.3671875,
				0.984375,
				0.8515625
			],
			"min":[
				-1.3671875,
				-0.984375,
				-0.8515625
			],
			"type":"VEC3"
		},
		{
			"bufferView":8,
			"componentType":5126,
			"count":555,
			"type":"VEC3"
		},
		{
			"bufferView":9,
			"componentType":5126,
			"count":555,
			"type":"VEC2"
		},
		{
			"bufferView":10,
			"componentType":5126,
			"count":555,
			"max":[
				1.3671875,
				0.984375,
				0.8515625
			],
			"min":[
				-1.3671875,
				-0.984375,
				-0.8515625
			],
			"type":"VEC3"
		},
		{
			"bufferView":11,
			"componentType":5126,
			"count":555,
			"type":"VEC3"
		},
		{
			"bufferView":12,
			"componentType":5126,
			"count":555,
			"type":"VEC2"
		},
		{
			"bufferView":13,
			"componentType":5126,
			"count":24,
			"max":[
				5,
				5,
				5
			],
			"min":[
				-5,
				-5,
				-5
			],
			"type":"VEC3"
		},
		{
			"bufferView":14,
			"componentType":5126,
			"count":24,
			"type":"VEC3"
		},
		{
			"bufferView":15,
			"componentType":5126,
			"count":24,
			"type":"VEC2"
		},
		{
			"bufferView":16,
			"componentType":5123,
			"count":36,
			"type":"SCALAR"
		},
		{
			"bufferView":17,
			"componentType":5126,
			"count":555,
			"max":[
				1.3671875,
				0.984375,
				0.8515625
			],
			"min":[
				-1.3671875,
				-0.984375,
				-0.8515625
			],
			"type":"VEC3"
		},
		{
			"bufferView":18,
			"componentType":5126,
			"count":555,
			"type":"VEC3"
		},
		{
			"bufferView":19,
			"componentType":5126,
			"count":555,
			"type":"VEC2"
		},
		{
			"bufferView":20,
			"componentType":5126,
			"count":555,
			"max":[
				1.3671875,
				0.984375,
				0.8515625
			],
			"min":[
				-1.3671875,
				-0.984375,
				-0.8515625
			],
			"type":"VEC3"
		},
		{
			"bufferView":21,
			"componentType":5126,
			"count":555,
			"type":"VEC3"
		},
		{
			"bufferView":22,
			"componentType":5126,
			"count":555,
			"type":"VEC2"
		},
		{
			"bufferView":23,
			"componentType":5126,
			"count":555,
			"max":[
				1.3671875,
				0.984375,
				0.8515625
			],
			"min":[
				-1.3671875,
				-0.984375,
				-0.8515625
			],
			"type":"VEC3"
		},
		{
			"bufferView":24,
			"componentType":5126,
			"count":555,
			"type":"VEC3"
		},
		{
			"bufferView":25,
			"componentType":5126,
			"count":555,
			"type":"VEC2"
		},
		{
			"bufferView":26,
			"componentType":5126,
			"count":251,
			"max":[
				10.416666666666666
			],
			"min":[
				0
			],
			"type":"SCALAR"
		},
		{
			"bufferView":27,
			"componentType":5126,
			"count":251,
			"type":"VEC4"
		}
	],
	"bufferViews":[
		{
			"buffer":0,
			"byteLength":6660,
			"byteOffset":0,
			"target":34962
		},
		{
			"buffer":0,
			"byteLength":6660,
			"byteOffset":6660,
			"target":34962
		},
		{
			"buffer":0,
			"byteLength":4440,
			"byteOffset":13320,
			"target":34962
		},
		{
			"buffer":0,
			"byteLength":5808,
			"byteOffset":17760,
			"target":34963
		},
		{
			"buffer":0,
			"byteLength":6660,
			"byteOffset":23568,
			"target":34962
		},
		{
			"buffer":0,
			"byteLength":6660,
			"byteOffset":30228,
			"target":34962
		},
		{
			"buffer":0,
			"byteLength":4440,
			"byteOffset":36888,
			"target":34962
		},
		{
			"buffer":0,
			"byteLength":6660,
			"byteOffset":41328,
			"target":34962
		},
		{
			"buffer":0,
			"byteLength":6660,
			"byteOffset":47988,
			"target":34962
		},
		{
			"buffer":0,
			"byteLength":4440,
			"byteOffset":54648,
			"target":34962
		},
		{
			"buffer":0,
			"byteLength":6660,
			"byteOffset":59088,
			"target":34962
		},
		{
			"buffer":0,
			"byteLength":6660,
			"byteOffset":65748,
			"target":34962
		},
		{
			"buffer":0,
			"byteLength":4440,
			"byteOffset":72408,
			"target":34962
		},
		{
			"buffer":0,
			"byteLength":288,
			"byteOffset":76848,
			"target":34962
		},
		{
			"buffer":0,
			"byteLength":288,
			"byteOffset":77136,
			"target":34962
		},
		{
			"buffer":0,
			"byteLength":192,
			"byteOffset":77424,
			"target":34962
		},
		{
			"buffer":0,
			"byteLength":72,
			"byteOffset":77616,
			"target":34963
		},
		{
			"buffer":0,
			"byteLength":6660,
			"byteOffset":77688,
			"target":34962
		},
		{
			"buffer":0,
			"byteLength":6660,
			"byteOffset":84348,
			"target":34962
		},
		{
			"buffer":0,
			"byteLength":4440,
			"byteOffset":91008,
			"target":34962
		},
		{
			"buffer":0,
			"byteLength":6660,
			"byteOffset":95448,
			"target":34962
		},
		{
			"buffer":0,
			"byteLength":6660,
			"byteOffset":102108,
			"target":34962
		},
		{
			"buffer":0,
			"byteLength":4440,
			"byteOffset":108768,
			"target":34962
		},
		{
			"buffer":0,
			"byteLength":6660,
			"byteOffset":113208,
			"target":34962
		},
		{
			"buffer":0,
			"byteLength":6660,
			"byteOffset":119868,
			"target":34962
		},
		{
			"buffer":0,
			"byteLength":4440,
			"byteOffset":126528,
			"target":34962
		},
		{
			"buffer":0,
			"byteLength":1004,
			"byteOffset":130968
		},
		{
			"buffer":0,
			"byteLength":4016,
			"byteOffset":131972
		}
	],
	"buffers":[
		{
			"byteLength":135988,
			"uri":"Points2.bin"
		}
	]
}
