{
	"asset":{
		"generator":"Khronos glTF Blender I/O v4.3.47",
		"version":"2.0"
	},
	"extensionsUsed":[
		"KHR_lights_punctual"
	],
	"extensionsRequired":[
		"KHR_lights_punctual"
	],
	"extensions":{
		"KHR_lights_punctual":{
			"lights":[
				{
					"color":[
						1,
						0,
						0
					],
					"intensity":15.915494309189533,
					"spot":{
						"innerConeAngle":0.3272492289543152,
						"outerConeAngle":0.6544984579086304
					},
					"type":"spot",
					"name":"SpotRed"
				},
				{
					"color":[
						0,
						1,
						0
					],
					"intensity":15.915494309189533,
					"spot":{
						"innerConeAngle":0.3272492289543152,
						"outerConeAngle":0.6544984579086304
					},
					"type":"spot",
					"name":"SpotGreen"
				},
				{
					"color":[
						0,
						0,
						1
					],
					"intensity":15.915494309189533,
					"spot":{
						"innerConeAngle":0.3272492289543152,
						"outerConeAngle":0.6544984579086304
					},
					"type":"spot",
					"name":"SpotBlue"
				}
			]
		}
	},
	"scene":0,
	"scenes":[
		{
			"name":"Scene",
			"nodes":[
				0,
				2,
				3,
				5,
				7,
				9
			]
		}
	],
	"nodes":[
		{
			"mesh":0,
			"name":"Plane"
		},
		{
			"camera":0,
			"name":"Camera",
			"rotation":[
				-0.17036086320877075,
				0.3897501528263092,
				0.07360992580652237,
				0.9020274877548218
			],
			"translation":[
				3.3902502059936523,
				1.8235979080200195,
				3.1907200813293457
			]
		},
		{
			"children":[
				1
			],
			"name":"CameraRoot",
			"translation":[
				0,
				0.5,
				0
			]
		},
		{
			"mesh":1,
			"name":"Suzanne",
			"scale":[
				0.5,
				0.5,
				0.5
			],
			"translation":[
				0,
				0.5,
				0
			]
		},
		{
			"extensions":{
				"KHR_lights_punctual":{
					"light":0
				}
			},
			"name":"SpotRed",
			"rotation":[
				0,
				-0.9486832618713379,
				-0.31622788310050964,
				4.146826881878951e-08
			],
			"translation":[
				0,
				2.1213204860687256,
				-2.1213204860687256
			]
		},
		{
			"children":[
				4
			],
			"name":"SpotRedRoot",
			"rotation":[
				0.17364820837974548,
				0,
				0,
				0.9848078489303589
			]
		},
		{
			"extensions":{
				"KHR_lights_punctual":{
					"light":1
				}
			},
			"name":"SpotGreen",
			"rotation":[
				0,
				-0.9486833214759827,
				-0.3162277638912201,
				3.474770693401297e-08
			],
			"translation":[
				0,
				2.1213204860687256,
				-2.1213204860687256
			]
		},
		{
			"children":[
				6
			],
			"name":"SpotGreenRoot",
			"rotation":[
				0.08682408183813095,
				0.8528685569763184,
				-0.15038372576236725,
				0.49240386486053467
			]
		},
		{
			"extensions":{
				"KHR_lights_punctual":{
					"light":2
				}
			},
			"name":"SpotBlue",
			"rotation":[
				0,
				-0.9486833214759827,
				-0.3162277638912201,
				4.5889734678894456e-08
			],
			"translation":[
				0,
				2.1213204860687256,
				-2.1213202476501465
			]
		},
		{
			"children":[
				8
			],
			"name":"SpotBlueRoot",
			"rotation":[
				0.08682410418987274,
				-0.8528684973716736,
				0.15038372576236725,
				0.49240395426750183
			]
		}
	],
	"cameras":[
		{
			"name":"Camera",
			"perspective":{
				"aspectRatio":1.7777777777777777,
				"yfov":0.39959652046304894,
				"zfar":100,
				"znear":0.10000000149011612
			},
			"type":"perspective"
		}
	],
	"animations":[
		{
			"channels":[
				{
					"sampler":0,
					"target":{
						"node":2,
						"path":"rotation"
					}
				}
			],
			"name":"CameraRootAction",
			"samplers":[
				{
					"input":8,
					"interpolation":"LINEAR",
					"output":9
				}
			]
		}
	],
	"materials":[
		{
			"doubleSided":true,
			"name":"Material",
			"pbrMetallicRoughness":{
				"metallicFactor":0,
				"roughnessFactor":0.5
			}
		}
	],
	"meshes":[
		{
			"name":"Plane",
			"primitives":[
				{
					"attributes":{
						"POSITION":0,
						"NORMAL":1,
						"TEXCOORD_0":2
					},
					"indices":3
				}
			]
		},
		{
			"name":"Suzanne",
			"primitives":[
				{
					"attributes":{
						"POSITION":4,
						"NORMAL":5,
						"TEXCOORD_0":6
					},
					"indices":7,
					"material":0
				}
			]
		}
	],
	"accessors":[
		{
			"bufferView":0,
			"componentType":5126,
			"count":4,
			"max":[
				25,
				0,
				25
			],
			"min":[
				-25,
				0,
				-25
			],
			"type":"VEC3"
		},
		{
			"bufferView":1,
			"componentType":5126,
			"count":4,
			"type":"VEC3"
		},
		{
			"bufferView":2,
			"componentType":5126,
			"count":4,
			"type":"VEC2"
		},
		{
			"bufferView":3,
			"componentType":5123,
			"count":6,
			"type":"SCALAR"
		},
		{
			"bufferView":4,
			"componentType":5126,
			"count":555,
			"max":[
				1.3671875,
				0.984375,
				0.8515625
			],
			"min":[
				-1.3671875,
				-0.984375,
				-0.8515625
			],
			"type":"VEC3"
		},
		{
			"bufferView":5,
			"componentType":5126,
			"count":555,
			"type":"VEC3"
		},
		{
			"bufferView":6,
			"componentType":5126,
			"count":555,
			"type":"VEC2"
		},
		{
			"bufferView":7,
			"componentType":5123,
			"count":2904,
			"type":"SCALAR"
		},
		{
			"bufferView":8,
			"componentType":5126,
			"count":251,
			"max":[
				10.416666666666666
			],
			"min":[
				0
			],
			"type":"SCALAR"
		},
		{
			"bufferView":9,
			"componentType":5126,
			"count":251,
			"type":"VEC4"
		}
	],
	"bufferViews":[
		{
			"buffer":0,
			"byteLength":48,
			"byteOffset":0,
			"target":34962
		},
		{
			"buffer":0,
			"byteLength":48,
			"byteOffset":48,
			"target":34962
		},
		{
			"buffer":0,
			"byteLength":32,
			"byteOffset":96,
			"target":34962
		},
		{
			"buffer":0,
			"byteLength":12,
			"byteOffset":128,
			"target":34963
		},
		{
			"buffer":0,
			"byteLength":6660,
			"byteOffset":140,
			"target":34962
		},
		{
			"buffer":0,
			"byteLength":6660,
			"byteOffset":6800,
			"target":34962
		},
		{
			"buffer":0,
			"byteLength":4440,
			"byteOffset":13460,
			"target":34962
		},
		{
			"buffer":0,
			"byteLength":5808,
			"byteOffset":17900,
			"target":34963
		},
		{
			"buffer":0,
			"byteLength":1004,
			"byteOffset":23708
		},
		{
			"buffer":0,
			"byteLength":4016,
			"byteOffset":24712
		}
	],
	"buffers":[
		{
			"byteLength":28728,
			"uri":"Spots.bin"
		}
	]
}
